<svg width="380" height="589" viewBox="0 0 380 589" fill="none" xmlns="http://www.w3.org/2000/svg">
<g filter="url(#filter0_d_0_6)">
<rect id='body-6' x="306" y="379.19" width="5" height="100" transform="rotate(-39.6353 306 379.19)"/>
<rect id='body-5' x="306.796" y="376" width="5" height="100" transform="rotate(39.64 306.796 376)"/>
<rect id='body-4' x="308" y="250.19" width="5" height="100" transform="rotate(-39.6353 308 250.19)"/>
<rect id='body-3' x="303.796" y="247" width="5" height="100" transform="rotate(39.64 303.796 247)"/>
<rect id='body-2' x="306" y="249" width="5" height="131"/>
<circle id='body-1' cx="306.5" cy="198.5" r="48" stroke-width="5"/>
<rect x="180.337" y="34.6662" width="39" height="199.598" transform="rotate(45 180.337 34.6662)" fill="black" stroke="#FFFEFE" stroke-width="3"/>
<rect x="38.5" y="1.5" width="39" height="578" rx="3.5" fill="black" stroke="#FFFEFE" stroke-width="3"/>
<rect x="355.5" y="34.5" width="39" height="350" rx="3.5" transform="rotate(90 355.5 34.5)" fill="black" stroke="#FFFEFE" stroke-width="3"/>
<rect x="302" y="75" width="10" height="74" fill="black"/>
</g>
<defs>
<filter id="filter0_d_0_6" x="0" y="0" width="380" height="589" filterUnits="userSpaceOnUse" color-interpolation-filters="sRGB">
<feFlood flood-opacity="0" result="BackgroundImageFix"/>
<feColorMatrix in="SourceAlpha" type="matrix" values="0 0 0 0 0 0 0 0 0 0 0 0 0 0 0 0 0 0 127 0" result="hardAlpha"/>
<feOffset dy="4"/>
<feGaussianBlur stdDeviation="2"/>
<feComposite in2="hardAlpha" operator="out"/>
<feColorMatrix type="matrix" values="0 0 0 0 0 0 0 0 0 0 0 0 0 0 0 0 0 0 0.25 0"/>
<feBlend mode="normal" in2="BackgroundImageFix" result="effect1_dropShadow_0_6"/>
<feBlend mode="normal" in="SourceGraphic" in2="effect1_dropShadow_0_6" result="shape"/>
</filter>
</defs>
</svg>
